<svg xmlns="http://www.w3.org/2000/svg" viewBox="0 0 120 200" width="120" height="200">
  <!-- Shadow that doesn't match -->
  <ellipse cx="75" cy="185" rx="55" ry="12" fill="rgba(0,0,0,0.4)" transform="skewX(-20)"/>
  <rect x="28" y="108" width="64" height="92" rx="4" fill="#222230"/>
  <rect x="50" y="88" width="20" height="24" fill="#b8a890"/>
  <!-- Head slightly dark tinted -->
  <ellipse cx="60" cy="68" rx="28" ry="32" fill="#b8a890"/>
  <ellipse cx="60" cy="40" rx="28" ry="13" fill="#1a180e"/>
  <rect x="32" y="40" width="56" height="20" fill="#1a180e"/>
  <!-- Normal eyes but slightly off -->
  <ellipse cx="47" cy="67" rx="7" ry="7" fill="#fff"/>
  <ellipse cx="73" cy="67" rx="7" ry="7" fill="#fff"/>
  <ellipse cx="47" cy="68" rx="4.5" ry="4.5" fill="#1a1a2a"/>
  <ellipse cx="73" cy="68" rx="4.5" ry="4.5" fill="#1a1a2a"/>
  <ellipse cx="48" cy="66" rx="1.5" ry="1.5" fill="#fff"/>
  <ellipse cx="74" cy="66" rx="1.5" ry="1.5" fill="#fff"/>
  <rect x="40" y="57" width="14" height="3" rx="1.5" fill="#1a180e"/>
  <rect x="66" y="57" width="14" height="3" rx="1.5" fill="#1a180e"/>
  <ellipse cx="60" cy="77" rx="3" ry="2" fill="#a09070"/>
  <path d="M50 86 Q60 91 70 86" stroke="#806050" stroke-width="2" fill="none" stroke-linecap="round"/>
  <ellipse cx="32" cy="68" rx="5" ry="8" fill="#b8a890"/>
  <ellipse cx="88" cy="68" rx="5" ry="8" fill="#b8a890"/>
</svg>
